<svg xmlns="http://www.w3.org/2000/svg" xmlns:xlink="http://www.w3.org/1999/xlink" version="1.1" width="266.893" height="266.895" enable-background="new 0 0 266.893 266.895" xml:space="preserve" style=""><rect id="backgroundrect" width="100%" height="100%" x="0" y="0" fill="none" stroke="none"/>


<g class="currentLayer" style=""><title>Layer 1</title><path id="Blue_1_" fill="#3C5A99" d="M252.8474269390692,266.7635769617067 c8.144244231200972,0 14.748610351460586,-6.579442372981352 14.748610351460586,-14.695017703824734 V15.223096413882232 c0,-8.116608372509734 -6.60332916530275,-14.693984662158385 -14.748610351460586,-14.693984662158385 H15.104763979119266 c-8.14735509607156,0 -14.749647306417447,6.577376289648653 -14.749647306417447,14.693984662158385 v236.8454628439998 c0,8.114542289177033 6.601255255389024,14.695017703824734 14.749647306417447,14.695017703824734 H252.8474269390692 z" class=""/><path id="f" fill="#FFFFFF" d="M150.60647103577458,228.0301867809376 v-83.63265742693667 h28.071404578469103 l4.20329458687128,-32.59313057343669 h-32.27469916534038 V90.99574423886014 c0,-9.436463385717202 2.620355297676733,-15.867101874483192 16.152014186990414,-15.867101874483192 l17.258982318819953,-0.00754179650754418 V45.969543134042034 c-2.9848754622080347,-0.39720128273065947 -13.229987029011916,-1.284619338451689 -25.1493774204906,-1.284619338451689 c-24.8837385879471,0 -41.91981892109964,15.189178166193946 -41.91981892109964,43.082931538040896 v24.036543446932974 h-28.143470633985636 v32.59313057343669 h28.143470633985636 v83.63265742693667 H150.60647103577458 z" class="selected"/></g></svg>