<svg xmlns="http://www.w3.org/2000/svg" xmlns:xlink="http://www.w3.org/1999/xlink" version="1.1" width="548.358" height="548.358" style="" xml:space="preserve"><rect id="backgroundrect" width="100%" height="100%" x="0" y="0" fill="none" stroke="none"/>
















<g class="currentLayer" style=""><title>Layer 1</title><g id="svg_1" class="selected">
	<path d="M445.9583482127092,354.04183700124395 c-0.4204700403343959,-0.9061635959616255 -0.8124443701039605,-1.6578171168606126 -1.1765562273212447,-2.2600264667973744 c-6.0246264514178245,-10.850533345075094 -17.5375267576221,-24.168795225064553 -34.53173530047476,-39.95858506804368 l-0.3590459531168713,-0.3615789051670781 l-0.1798395955647112,-0.1773066435145042 l-0.181739309602367,-0.181739309602367 h-0.18237254761491856 c-7.712838992880923,-7.352526563738951 -12.597003783692958,-12.296215727730852 -14.642362564235272,-14.827268063900396 c-3.7424366541811387,-4.8214742275694045 -4.580843782799721,-9.701839590306129 -2.535485002257407,-14.646795230323134 c1.4450491446432074,-3.73610427405562 6.873165388237237,-11.626249910451047 16.271683970531054,-23.68120195539966 c4.943689163991904,-6.38873830863511 8.858999795599683,-11.509100878128965 11.750364560911201,-15.366786850594531 c20.853160991343323,-27.72316018951781 29.893900096545373,-45.43862682866696 27.120317601568495,-53.153365535585536 l-1.0771378593506118,-1.8028286217349754 c-0.7237910483467078,-1.085369953513785 -2.5918431853745174,-2.0782871571950077 -5.601623459033223,-2.9838175151440818 c-3.0167458917967753,-0.9036306439114189 -6.872532150224686,-1.0530748148736435 -11.574324393421799,-0.450865464936882 l-52.067362344059205,0.35967919112942287 c-0.8434730327189979,-0.29888834192445 -2.0478917325925217,-0.271025869372171 -3.6170555276958822,0.0911862738074594 c-1.567264081065705,0.3622121431796304 -2.3512127406048338,0.5439514527819964 -2.3512127406048338,0.5439514527819964 l-0.9061635959616255,0.4527651789745373 l-0.7193583822588451,0.5439514527819964 c-0.6028425879493146,0.35967919112942287 -1.2658427870910491,0.9922839656686705 -1.9896338354377554,1.8965478475926414 c-0.7199916202713962,0.9010976918612115 -1.3222009702081583,1.9586051728227174 -1.8034618597475265,3.163657110708793 c-5.668746688363713,14.584104667080506 -12.113843180115934,28.143630229852203 -19.347320997495146,40.67794345030253 c-4.459895322402328,7.4741082621488975 -8.555678787587368,13.951499892541259 -12.296215727730852,19.4359743192524 c-3.7354710360430685,5.482574712673484 -6.869365960161927,9.521999994741417 -9.398518582293816,12.111310228065728 c-2.5329520502072,2.5918431853745174 -4.818941275519198,4.6682306285318695 -6.871898912212133,6.2367611856226794 c-2.0497914466301768,1.5691637951033601 -3.6145225756456747,2.232163994245095 -4.697992815121805,1.9896338354377554 c-1.086003191526337,-0.24253015880733977 -2.108682581797494,-0.4831606035770227 -3.0769035029891962,-0.7237910483467078 c-1.6863128274254437,-1.085369953513785 -3.0427086503113987,-2.561447760772031 -4.065388040582556,-4.429499897799841 c-1.0271120563590197,-1.86805213702781 -1.7186079660655855,-4.219264877632644 -2.080186871232663,-7.051738507776845 c-0.35967919112942287,-2.8343733441818566 -0.5724471633468274,-5.272339692506287 -0.6332380125518013,-7.322131139136464 c-0.056358183117110286,-2.0472584945799697 -0.030395424602486443,-4.94305592597935 0.09181951182001102,-8.679160200034971 c0.12538112648525637,-3.738003988093275 0.181739309602367,-6.267156610225165 0.181739309602367,-7.5931570085086335 c0,-4.580843782799721 0.08928655976980399,-9.552395419343904 0.2684929173219636,-14.91592138565765 c0.18237254761491856,-5.3635259663137465 0.3299170045394882,-9.613186268548876 0.45339841698708927,-12.743915002604975 c0.12284817443504943,-3.1338949241188585 0.1798395955647112,-6.449529157840083 0.1798395955647112,-9.94500298712602 s-0.21276797221740493,-6.2367611856226794 -0.6332380125518013,-8.226395021060434 c-0.41540413623398126,-1.9871008833875483 -1.0530748148736435,-3.915943869620331 -1.893381657529883,-5.785895720685797 c-0.8453727467566527,-1.86805213702781 -2.0827198232828703,-3.3131012816710177 -3.706342087465685,-4.338946862004933 c-1.6267884542455748,-1.0245791043088124 -3.6493506663360233,-1.8376567124253236 -6.056288352045415,-2.4417657763997407 c-6.38873830863511,-1.4456823826557594 -14.523947055888085,-2.2277313281572324 -24.40942566983423,-2.349313026567178 c-22.417258882346275,-0.24063044476968434 -36.82152395386207,1.2069516519237309 -43.20962902448463,4.3408465760425905 c-2.531052336169545,1.324100684245814 -4.8214742275694045,3.1332616861063065 -6.869365960161927,5.421783863468511 c-2.1701066690150186,2.652634034579491 -2.472794439014779,4.100216131272905 -0.9061635959616255,4.3383136239923825 c7.23284457936666,1.08347023947613 12.353207148860514,3.675313424850647 15.366786850594531,7.772996604073345 l1.086003191526337,2.1713731450401226 c0.8447395087441014,1.5666308430531537 1.6882125414631006,4.340213338030037 2.5323188121946485,8.316948056855342 c0.8428397947064462,3.9767347188253055 1.3867912474884418,8.375839192022658 1.626155216233023,13.194780467541856 c0.6015761119242106,8.800108660432366 0.6015761119242106,16.33310805774858 0,22.599631429961192 c-0.6034758259618654,6.269056324262821 -1.1733900372584856,11.149421686999542 -1.7173414900404824,14.644895516285478 c-0.5439514527819964,3.495473829285936 -1.3570290608985074,6.327947459430138 -2.4411325383871887,8.496787652420052 c-1.086003191526337,2.1694734310024666 -1.8085277638479402,3.495473829285936 -2.17073990702757,3.9767347188253055 c-0.3615789051670781,0.4812608895393683 -0.6630001991417346,0.7845818975516805 -0.9023641678863142,0.9036306439114189 c-1.5666308430531537,0.6003096358991067 -3.1959522493489345,0.9061635959616255 -4.882265076774377,0.9061635959616255 c-1.6888457794756526,0 -3.7367375120681716,-0.8447395087441014 -6.146841387840324,-2.5329520502072 c-2.409470637759599,-1.6882125414631006 -4.910127549326659,-4.007130143427791 -7.501970734701174,-6.960552233969386 c-2.5918431853745174,-2.954055328554147 -5.514869851313626,-7.082133932379331 -8.77034647384243,-12.384869049488104 c-3.2529436704785972,-5.3027351171087735 -6.628102277379691,-11.569891727333939 -10.123576106665626,-18.801469830675494 l-2.8919980033240718,-5.244477219954008 c-1.8078945258353891,-3.3738921308759906 -4.277522774787409,-8.286552632252855 -7.411417698906267,-14.733548838042731 c-3.1357946381565136,-6.449529157840083 -5.907477419095743,-12.688190057500416 -8.316948056855342,-18.714716222955897 c-0.9631550170912879,-2.531052336169545 -2.410103875772153,-4.457995608364673 -4.3383136239923825,-5.783996006648142 l-0.9048971199365223,-0.5439514527819964 c-0.6015761119242106,-0.4812608895393683 -1.567264081065705,-0.9922839656686705 -2.8919980033240718,-1.5368686564632186 c-1.3266336362960212,-0.5439514527819964 -2.7108919317342557,-0.934026068513905 -4.158474028427671,-1.1740232752710373 l-49.53757648391476,0.35967919112942287 c-5.06210467233909,0 -8.496787652420052,1.14679404073131 -10.305315416267995,3.43721593213117 l-0.7237910483467078,1.08347023947613 C100.74041357593224,189.3037015598681 100.55804102831732,190.26748981497195 100.55804102831732,191.594123451268 c0,1.3260003982834694 0.3615789051670781,2.9534220905415953 1.085369953513785,4.880365362736723 c7.231578103341559,16.99610825689031 15.095760981222359,33.38747421179366 23.592548633642412,49.176630816760245 c8.496787652420052,15.789156604966582 15.880342878774039,28.507742087069484 22.1462330129741,38.14435816208278 c6.267156610225165,9.643581693151361 12.655261680847723,18.745111647558385 19.164315211867677,27.300157197133203 c6.509053531019952,8.558211739637578 10.8176049684224,14.042686166348716 12.92565431220734,16.452156804108316 c2.1105822958351497,2.413903303847462 3.7683994126957616,4.218631639620091 4.973451350581837,5.423683577506167 l4.5206861716073,4.3383136239923825 c2.8926312413366224,2.893264479349174 7.140391829534097,6.358342884032624 12.745181478630078,10.395235214050349 c5.606056125121086,4.039425282067933 11.812421886141276,8.016160000893237 18.622263473123333,11.936536536601432 c6.81110806300716,3.9140441555826757 14.734815314067832,7.108096690893955 23.775554419269884,9.578358177858526 c9.039472629176945,2.472794439014779 17.837681575571658,3.46507840468345 26.39589331520923,2.9863504671942893 h20.791736904125802 c4.216731925582436,-0.36411185721728584 7.411417698906267,-1.6901122555007544 9.58279084394639,-3.97863443286296 l0.7193583822588451,-0.9061635959616255 c0.48379384158957567,-0.7193583822588451 0.9365590205641126,-1.837023474412772 1.3544961088483003,-3.3409637542232966 c0.423002992384603,-1.506473231860733 0.6332380125518013,-3.166190062759 0.6332380125518013,-4.9715516365441825 c-0.12348141244760102,-5.181786656711379 0.271025869372171,-9.851916999280904 1.1727567992459338,-14.009757789696023 c0.9010976918612115,-4.156574314390015 1.9282097482202305,-7.290469238508873 3.0769035029891962,-9.401051534344024 c1.1480605167564137,-2.108682581797494 2.4436654904373962,-3.8880813970680514 3.8855484450178452,-5.3305975896610525 c1.4450491446432074,-1.4456823826557594 2.4746941530524347,-2.3214505540148993 3.0788032170268522,-2.6228718479895567 c0.6003096358991067,-0.3033210080123123 1.079670811400819,-0.5091233620916471 1.4412497165678961,-0.6326047745392489 c2.8926312413366224,-0.9637882551038399 6.2969187968151,-0.030395424602486443 10.217928570535843,2.8046111575919226 c3.917843583657988,2.8324736301442015 7.592523770496083,6.329847173467793 11.029739702627252,10.486421487857807 c3.435316218093515,4.160373742465326 7.562761583906147,8.827971132984645 12.382969335450449,14.009757789696023 c4.823373941607061,5.183686370749036 9.040739105202048,9.036939677126739 12.655261680847723,11.571791441371595 l3.6145225756456747,2.1694734310024666 c2.413903303847462,1.4475820966934152 5.54779822796632,2.7735824949768837 9.405484200431884,3.97863443286296 c3.8507203543274966,1.204418699873524 7.224612485203487,1.505839993848181 10.121676392627972,0.9036306439114189 l46.28146662337341,-0.721891334309053 c4.577677592736962,0 8.139641413340836,-0.7579859010245048 10.666261083422519,-2.26192618083503 c2.5316855741820965,-1.506473231860733 4.035625853992622,-3.166190062759 4.5206861716073,-4.9715516365441825 c0.48379384158957567,-1.8072612878228371 0.5097566001041993,-3.857685972465565 0.09181951182001102,-6.150007577903081 C446.80118800741565,356.5443936268487 446.3788182530437,354.9454676451554 445.9583482127092,354.04183700124395 z" fill="#FFFFFF" id="svg_2"/>
</g><g id="svg_3">
</g><g id="svg_4">
</g><g id="svg_5">
</g><g id="svg_6">
</g><g id="svg_7">
</g><g id="svg_8">
</g><g id="svg_9">
</g><g id="svg_10">
</g><g id="svg_11">
</g><g id="svg_12">
</g><g id="svg_13">
</g><g id="svg_14">
</g><g id="svg_15">
</g><g id="svg_16">
</g><g id="svg_17">
</g></g></svg>