<svg xmlns="http://www.w3.org/2000/svg" width="192" height="192" viewBox="0 0 192 192">
  <g fill="#5181B8" fill-rule="evenodd">
     <path d="M66.56 0c53.76,0 5.12,0 58.88,0 53.76,0 66.56,12.8 66.56,66.56 0,53.76 0,5.12 0,58.88 0,53.76 -12.8,66.56 -66.56,66.56 -53.76,0 -5.12,0 -58.88,0 -53.76,0 -66.56,-12.8 -66.56,-66.56 0,-53.76 0,-28.86 0,-58.88 0,-53.76 12.8,-66.56 66.56,-66.56zm90.67 66.15c0.89,-2.97 0,-5.15 -4.23,-5.15l-14 0c-3.56,0 -5.2,1.88 -6.09,3.96 0,0 -7.12,17.35 -17.21,28.62 -3.26,3.27 -4.74,4.31 -6.52,4.31 -0.89,0 -2.18,-1.04 -2.18,-4.01l0 -27.73c0,-3.56 -1.03,-5.15 -4,-5.15l-22 0c-2.22,0 -3.56,1.65 -3.56,3.22 0,3.37 5.04,4.15 5.56,13.64l0 20.62c0,4.52 -0.82,5.34 -2.6,5.34 -4.74,0 -16.29,-17.43 -23.13,-37.38 -1.35,-3.87 -2.69,-5.44 -6.27,-5.44l-14 0c-4,0 -4.8,1.88 -4.8,3.96 0,3.71 4.75,22.1 22.1,46.42 11.57,16.61 27.87,25.62 42.7,25.62 8.9,0 10,-2 10,-5.45l0 -12.55c0,-4 0.84,-4.8 3.66,-4.8 2.08,0 5.64,1.04 13.94,9.05 9.5,9.49 11.06,13.75 16.4,13.75l14 0c4,0 6,-2 4.85,-5.95 -1.27,-3.93 -5.8,-9.64 -11.81,-16.4 -3.26,-3.86 -8.16,-8.01 -9.64,-10.09 -2.08,-2.67 -1.49,-3.86 0,-6.23 0,0 17.05,-24.03 18.83,-32.18z"/>
  </g>
</svg>
